<mxfile host="app.diagrams.net" agent="Mozilla/5.0 (Windows NT 10.0; Win64; x64) AppleWebKit/537.36 (KHTML, like Gecko) Chrome/130.0.0.0 Safari/537.36" version="24.8.3">
  <diagram name="Página-1" id="cxuUeloPyavIdixyibIE">
    <mxGraphModel dx="989" dy="532" grid="1" gridSize="10" guides="1" tooltips="1" connect="1" arrows="1" fold="1" page="1" pageScale="1" pageWidth="827" pageHeight="1169" math="0" shadow="0">
      <root>
        <mxCell id="0" />
        <mxCell id="1" parent="0" />
        <mxCell id="OFjHY_yF4wuuftuvWeQq-10" style="rounded=0;orthogonalLoop=1;jettySize=auto;html=1;endArrow=none;endFill=0;" edge="1" parent="1" source="OFjHY_yF4wuuftuvWeQq-1" target="OFjHY_yF4wuuftuvWeQq-3">
          <mxGeometry relative="1" as="geometry" />
        </mxCell>
        <mxCell id="OFjHY_yF4wuuftuvWeQq-11" style="rounded=0;orthogonalLoop=1;jettySize=auto;html=1;endArrow=none;endFill=0;" edge="1" parent="1" source="OFjHY_yF4wuuftuvWeQq-1" target="OFjHY_yF4wuuftuvWeQq-4">
          <mxGeometry relative="1" as="geometry" />
        </mxCell>
        <mxCell id="OFjHY_yF4wuuftuvWeQq-12" style="rounded=0;orthogonalLoop=1;jettySize=auto;html=1;endArrow=none;endFill=0;" edge="1" parent="1" source="OFjHY_yF4wuuftuvWeQq-1" target="OFjHY_yF4wuuftuvWeQq-6">
          <mxGeometry relative="1" as="geometry" />
        </mxCell>
        <mxCell id="OFjHY_yF4wuuftuvWeQq-13" style="rounded=0;orthogonalLoop=1;jettySize=auto;html=1;endArrow=none;endFill=0;" edge="1" parent="1" source="OFjHY_yF4wuuftuvWeQq-1" target="OFjHY_yF4wuuftuvWeQq-5">
          <mxGeometry relative="1" as="geometry" />
        </mxCell>
        <mxCell id="OFjHY_yF4wuuftuvWeQq-1" value="Usuário" style="shape=umlActor;html=1;verticalLabelPosition=bottom;verticalAlign=top;align=center;" vertex="1" parent="1">
          <mxGeometry x="170" y="140" width="30" height="60" as="geometry" />
        </mxCell>
        <mxCell id="OFjHY_yF4wuuftuvWeQq-3" value="Cadastrar Funcionário" style="ellipse;whiteSpace=wrap;html=1;" vertex="1" parent="1">
          <mxGeometry x="260" y="20" width="140" height="70" as="geometry" />
        </mxCell>
        <mxCell id="OFjHY_yF4wuuftuvWeQq-4" value="Consultar Funcionário" style="ellipse;whiteSpace=wrap;html=1;" vertex="1" parent="1">
          <mxGeometry x="320" y="110" width="140" height="70" as="geometry" />
        </mxCell>
        <mxCell id="OFjHY_yF4wuuftuvWeQq-5" value="Atualizar Funcionário" style="ellipse;whiteSpace=wrap;html=1;" vertex="1" parent="1">
          <mxGeometry x="320" y="210" width="140" height="70" as="geometry" />
        </mxCell>
        <mxCell id="OFjHY_yF4wuuftuvWeQq-6" value="Deletar Funcionário" style="ellipse;whiteSpace=wrap;html=1;" vertex="1" parent="1">
          <mxGeometry x="115" y="250" width="140" height="70" as="geometry" />
        </mxCell>
        <mxCell id="OFjHY_yF4wuuftuvWeQq-7" value="Solicitar Confirmação de Exclusão" style="ellipse;whiteSpace=wrap;html=1;" vertex="1" parent="1">
          <mxGeometry x="320" y="310" width="140" height="70" as="geometry" />
        </mxCell>
        <mxCell id="OFjHY_yF4wuuftuvWeQq-15" value="&amp;lt;&amp;lt;include&amp;gt;&amp;gt;" style="edgeStyle=none;html=1;endArrow=open;verticalAlign=bottom;dashed=1;labelBackgroundColor=none;rounded=0;" edge="1" parent="1" source="OFjHY_yF4wuuftuvWeQq-6" target="OFjHY_yF4wuuftuvWeQq-7">
          <mxGeometry x="0.2427" y="19" width="160" relative="1" as="geometry">
            <mxPoint x="160" y="360" as="sourcePoint" />
            <mxPoint x="320" y="360" as="targetPoint" />
            <mxPoint as="offset" />
          </mxGeometry>
        </mxCell>
      </root>
    </mxGraphModel>
  </diagram>
</mxfile>
